Coordinates
version=1
nRows=6
nColumns=36
inDegrees=yes

Units are S.I. units (second, meters, Newtons, ...)
If the header above contains a line with 'inDegrees', this indicates whether rotational values are in degrees (yes) or radians (no).

endheader
time	pelvis_tilt	pelvis_list	pelvis_rotation	pelvis_tx	pelvis_ty	pelvis_tz	hip_flexion_r	hip_adduction_r	hip_rotation_r	knee_angle_r	knee_angle_r_beta	ankle_angle_r	subtalar_angle_r	mtp_angle_r	hip_flexion_l	hip_adduction_l	hip_rotation_l	knee_angle_l	knee_angle_l_beta	ankle_angle_l	subtalar_angle_l	mtp_angle_l	lumbar_extension	lumbar_bending	lumbar_rotation	arm_flex_r	arm_add_r	arm_rot_r	elbow_flex_r	pro_sup_r	arm_flex_l	arm_add_l	arm_rot_l	elbow_flex_l	pro_sup_l
      0.75000000	      1.01058421	      1.10686471	     -3.19528206	      0.76234058	      1.03012852	     -0.14555438	     -6.30081678	     -0.71053325	     -3.40313614	     45.72425715	      0.79803884	     -3.61454358	      2.18905448	     -6.75852554	     20.10527121	      1.63381415	      0.67764406	     15.89262985	      0.27737872	     -2.45253271	     -2.38355426	     -6.75852554	    -14.81942975	    -20.03095633	    -16.54135537	    -16.15082750	     -8.68088809	      3.08814888	     45.39067918	    103.61745287	    -28.01588987	    -15.32965717	    -24.71159195	     41.60281536	     90.86881647
      0.76000000	      0.79827417	      1.10087097	     -3.25314837	      0.77338918	      1.03205368	     -0.14647816	     -4.44628240	     -0.90445864	     -3.41968924	     48.67990015	      0.84962454	     -6.20884577	      0.84702039	     -6.76850298	     19.63916737	      1.63666371	      0.25121175	     15.92888981	      0.27801157	     -1.63259451	     -1.81695438	     -6.76850298	    -14.65269519	    -20.11343235	    -16.63126770	    -16.26856073	     -8.77487834	      3.33517262	     45.26478701	    103.75601828	    -27.46858898	    -15.87679905	    -24.82107330	     42.09352021	     90.99493472
      0.77000000	      0.72436605	      1.14496161	     -3.27454139	      0.78433229	      1.03419333	     -0.14733215	     -2.77254750	     -1.12043141	     -3.42555609	     51.45198583	      0.89800656	     -8.65081228	     -0.21343320	     -6.77592129	     18.96072044	      1.73755229	      0.06291635	     15.85424755	      0.27670882	     -0.78846323	     -1.37079289	     -6.77592129	    -14.65633305	    -20.25200073	    -16.79427747	    -16.33198219	     -8.81809653	      3.57241228	     45.19715484	    103.86745025	    -26.87528349	    -16.51434453	    -24.92546311	     42.55921863	     91.10286706
      0.78000000	      0.54182452	      1.08050122	     -3.30927599	      0.79511866	      1.03615606	     -0.14805124	     -0.98015193	     -1.11756699	     -3.37439487	     54.03591279	      0.94310459	    -11.43991634	     -2.11332506	     -6.78706846	     18.40006519	      1.68145485	     -0.19698242	     15.75997243	      0.27506341	      0.02086062	     -0.71574420	     -6.78706846	    -14.50737684	    -20.24352496	    -16.89552690	    -16.43139917	     -8.94211801	      3.89116439	     45.12579190	    104.02811756	    -26.30435652	    -17.12201358	    -24.99730097	     43.10716655	     91.24860829
      0.79000000	      0.52048389	      1.10586114	     -3.27697020	      0.80585817	      1.03832718	     -0.14881276	      0.57180236	     -1.21174231	     -3.37315313	     56.39673978	      0.98430880	    -13.57523641	     -3.38512858	     -6.79542296	     17.59577547	      1.79436062	     -0.16632546	     15.52479342	      0.27095876	      0.78432308	     -0.29174681	     -6.79542296	    -14.55389624	    -20.32086896	    -17.09975617	    -16.48665896	     -9.00165564	      4.15264645	     45.10052737	    104.14386463	    -25.66753151	    -17.82348959	    -25.06020268	     43.58065964	     91.35041089
      0.80000000	      0.46960734	      0.98115903	     -3.20815069	      0.81646255	      1.04043213	     -0.14942659	      2.08883337	     -1.02742475	     -3.37264989	     58.43652083	      1.01990969	    -15.95951058	     -5.72065206	     -6.81607373	     16.88176918	      1.70385720	     -0.26287271	     15.38665475	      0.26854779	      1.47150798	      0.32436137	     -6.81607373	    -14.55831389	    -20.20699789	    -17.29641236	    -16.50572890	     -9.08587746	      4.48107792	     45.06699169	    104.36470881	    -25.04424382	    -18.55700465	    -25.01320408	     44.05923638	     91.50414601
